<svg width="1200" height="900" viewBox="0 0 1200 900" fill="none" xmlns="http://www.w3.org/2000/svg">
  <defs>
    <linearGradient id="bg" x1="0" y1="0" x2="1" y2="1">
      <stop offset="0%" stop-color="#f7e8dc"/>
      <stop offset="50%" stop-color="#f3d7c2"/>
      <stop offset="100%" stop-color="#e5c1a3"/>
    </linearGradient>
    <linearGradient id="plate" x1="0" y1="0" x2="1" y2="1">
      <stop offset="0%" stop-color="#ffffff"/>
      <stop offset="100%" stop-color="#f2efe9"/>
    </linearGradient>
    <linearGradient id="salmon" x1="0" y1="0" x2="1" y2="1">
      <stop offset="0%" stop-color="#f6a67a"/>
      <stop offset="60%" stop-color="#e77f5e"/>
      <stop offset="100%" stop-color="#c7644c"/>
    </linearGradient>
    <linearGradient id="glaze" x1="0" y1="0" x2="1" y2="1">
      <stop offset="0%" stop-color="#f7c96a" stop-opacity="0.9"/>
      <stop offset="100%" stop-color="#c98a3a" stop-opacity="0.9"/>
    </linearGradient>
    <filter id="soft" x="-20%" y="-20%" width="140%" height="140%" color-interpolation-filters="sRGB">
      <feGaussianBlur stdDeviation="12"/>
    </filter>
  </defs>
  <rect width="1200" height="900" fill="url(#bg)"/>
  <circle cx="640" cy="520" r="360" fill="#e7c8b0" filter="url(#soft)" opacity="0.35"/>
  <ellipse cx="610" cy="520" rx="360" ry="260" fill="url(#plate)"/>
  <ellipse cx="610" cy="520" rx="330" ry="230" fill="#fbfaf7"/>
  <ellipse cx="610" cy="520" rx="280" ry="190" fill="#fdfcf9"/>

  <g transform="translate(270 330)">
    <path d="M90 60C220 0 410 0 540 70C610 110 600 220 510 260C400 320 240 310 110 260C40 235 20 130 90 60Z" fill="url(#salmon)"/>
    <path d="M135 105C245 65 375 65 505 110" stroke="#f6d1bf" stroke-width="16" stroke-linecap="round" opacity="0.7"/>
    <path d="M120 150C240 120 380 120 500 160" stroke="#f2bda2" stroke-width="12" stroke-linecap="round" opacity="0.7"/>
    <path d="M130 200C255 175 375 175 480 210" stroke="#e7a987" stroke-width="10" stroke-linecap="round" opacity="0.6"/>
    <path d="M150 65C230 30 330 20 420 40" stroke="#fff4ec" stroke-width="10" stroke-linecap="round" opacity="0.6"/>
    <path d="M160 230C300 210 420 215 520 240" stroke="url(#glaze)" stroke-width="18" stroke-linecap="round" opacity="0.7"/>
  </g>

  <g>
    <circle cx="260" cy="220" r="50" fill="#d9a14d" opacity="0.4"/>
    <circle cx="980" cy="250" r="40" fill="#d9a14d" opacity="0.35"/>
  </g>

  <g>
    <path d="M370 650C350 610 350 560 380 520C410 480 450 470 480 470" stroke="#7a9668" stroke-width="16" stroke-linecap="round"/>
    <path d="M450 680C420 640 420 600 450 560C480 520 520 510 550 510" stroke="#9caf88" stroke-width="14" stroke-linecap="round"/>
    <path d="M520 690C500 650 500 610 530 570C560 530 600 520 630 520" stroke="#7a9668" stroke-width="12" stroke-linecap="round"/>
  </g>

  <g>
    <circle cx="860" cy="620" r="38" fill="#f0c87d"/>
    <circle cx="910" cy="640" r="30" fill="#e9b769"/>
    <circle cx="820" cy="650" r="22" fill="#f2d38d"/>
  </g>
</svg>
