<svg width="600" height="450" viewBox="0 0 600 450" fill="none" xmlns="http://www.w3.org/2000/svg">
  <defs>
    <linearGradient id="bg" x1="0" y1="0" x2="1" y2="1">
      <stop offset="0%" stop-color="#f2ebe2"/>
      <stop offset="100%" stop-color="#e6d2c0"/>
    </linearGradient>
  </defs>
  <rect width="600" height="450" fill="url(#bg)"/>
  <ellipse cx="300" cy="255" rx="210" ry="135" fill="#fffdf8"/>
  <path d="M180 245C230 200 320 190 390 210C460 230 470 300 410 330C350 360 250 350 200 315C160 285 150 270 180 245Z" fill="#e5b27a"/>
  <path d="M220 245C270 220 320 220 370 250" stroke="#f3d6a8" stroke-width="12" stroke-linecap="round"/>
  <path d="M250 290C300 270 350 270 380 290" stroke="#c77a5b" stroke-width="10" stroke-linecap="round"/>
  <circle cx="430" cy="210" r="26" fill="#9caf88"/>
  <circle cx="455" cy="235" r="18" fill="#7a9668"/>
</svg>
