<svg width="600" height="600" viewBox="0 0 600 600" fill="none" xmlns="http://www.w3.org/2000/svg">
  <defs>
    <linearGradient id="bg" x1="0" y1="0" x2="1" y2="1">
      <stop offset="0%" stop-color="#ecf0e7"/>
      <stop offset="100%" stop-color="#cfe1c2"/>
    </linearGradient>
  </defs>
  <rect width="600" height="600" fill="url(#bg)"/>
  <circle cx="300" cy="320" r="170" fill="#f7f4ee"/>
  <g>
    <path d="M210 360C240 310 280 280 320 270" stroke="#7a9668" stroke-width="18" stroke-linecap="round"/>
    <path d="M260 390C300 330 340 300 380 290" stroke="#9caf88" stroke-width="16" stroke-linecap="round"/>
    <path d="M240 300C270 260 310 230 350 220" stroke="#7a9668" stroke-width="14" stroke-linecap="round"/>
  </g>
  <g>
    <ellipse cx="230" cy="320" rx="60" ry="30" fill="#9caf88" transform="rotate(-20 230 320)"/>
    <ellipse cx="310" cy="310" rx="70" ry="32" fill="#7a9668" transform="rotate(15 310 310)"/>
    <ellipse cx="360" cy="350" rx="60" ry="28" fill="#9caf88" transform="rotate(30 360 350)"/>
    <ellipse cx="280" cy="370" rx="55" ry="26" fill="#7a9668" transform="rotate(-10 280 370)"/>
  </g>
  <circle cx="420" cy="230" r="26" fill="#f0c87d"/>
  <circle cx="450" cy="260" r="18" fill="#e5a84b"/>
</svg>
