<svg width="600" height="450" viewBox="0 0 600 450" fill="none" xmlns="http://www.w3.org/2000/svg">
  <defs>
    <linearGradient id="bg" x1="0" y1="0" x2="1" y2="1">
      <stop offset="0%" stop-color="#f7e9d9"/>
      <stop offset="100%" stop-color="#eecdb0"/>
    </linearGradient>
  </defs>
  <rect width="600" height="450" fill="url(#bg)"/>
  <ellipse cx="300" cy="260" rx="210" ry="140" fill="#fefaf3"/>
  <path d="M160 240C200 190 260 170 340 180C420 190 470 240 450 290C430 340 360 360 280 350C210 340 140 300 160 240Z" fill="#e4a251"/>
  <path d="M200 250C250 230 320 230 370 255" stroke="#f7d19a" stroke-width="10" stroke-linecap="round" opacity="0.8"/>
  <circle cx="430" cy="210" r="32" fill="#f2d27b"/>
  <circle cx="470" cy="240" r="24" fill="#efc46d"/>
  <path d="M220 330C240 300 260 285 290 275" stroke="#7a9668" stroke-width="12" stroke-linecap="round"/>
  <path d="M330 330C350 300 370 285 400 275" stroke="#9caf88" stroke-width="10" stroke-linecap="round"/>
</svg>
